<svg xmlns="http://www.w3.org/2000/svg" xmlns:xlink="http://www.w3.org/1999/xlink" viewBox="0 0 400 237" xml:lang="bn"><defs><style type="text/css">.region { cursor: pointer; text-decoration: none; }
.region text { text-decoration: none; }
.region path { transition: filter 0.15s ease-in-out, opacity 0.15s ease-in-out; }
.region:hover path { filter: brightness(1.18); }</style></defs><g id="munshiganj-district" stroke="#ffffff" stroke-width="0" stroke-linejoin="round"><a class="region" id="link-srinagar" data-area="srinagar" href="#" target="_blank" rel="noopener noreferrer"><g data-region="srinagar"><path id="srinagar" d="M 38.0,157.5 L 28.0,153.5 L 9.5,134.0 L 3.5,123.0 L 19.5,105.0 L 19.5,90.0 L 28.5,83.0 L 31.5,69.0 L 50.0,40.5 L 58.0,47.5 L 67.0,47.5 L 76.0,54.5 L 98.0,51.5 L 107.5,68.0 L 119.5,76.0 L 116.5,96.0 L 122.0,100.5 L 136.5,102.0 L 137.5,106.0 L 132.5,116.0 L 116.0,135.5 L 97.0,142.5 L 56.0,142.5 L 38.0,157.5 Z" fill="#6ba95b" />
  <title>শ্রীনগর</title><text x="68.4" y="102.0" fill="#0b0b0b" font-family="Kalpurush, 'Noto Sans Bengali', 'Hind Siliguri', sans-serif" font-size="14" font-weight="400" text-anchor="middle">শ্রীনগর</text>
  </g></a><a class="region" id="link-sirajdikhan" data-area="sirajdikhan" href="#" target="_blank" rel="noopener noreferrer"><g data-region="sirajdikhan"><path id="sirajdikhan" d="M 173.0,123.5 L 150.0,109.5 L 132.0,122.5 L 130.5,120.0 L 139.5,102.0 L 135.0,97.5 L 122.0,97.5 L 119.5,95.0 L 121.5,75.0 L 108.5,65.0 L 106.5,58.0 L 97.0,49.5 L 77.0,51.5 L 69.0,45.5 L 60.0,45.5 L 53.5,40.0 L 60.5,16.0 L 72.0,13.5 L 82.0,2.5 L 93.0,2.5 L 103.0,6.5 L 120.0,24.5 L 133.0,25.5 L 144.0,17.5 L 159.0,17.5 L 175.0,35.5 L 187.0,41.5 L 199.5,75.0 L 214.5,87.0 L 193.0,96.5 L 180.5,119.0 L 173.0,123.5 Z" fill="#033670" />
  <title>সিরাজদিখান</title><text x="137.5" y="58.6" fill="#ffffff" font-family="Kalpurush, 'Noto Sans Bengali', 'Hind Siliguri', sans-serif" font-size="14" font-weight="400" text-anchor="middle">সিরাজদিখান</text>
  </g></a><a class="region" id="link-tongibari" data-area="tongibari" href="#" target="_blank" rel="noopener noreferrer"><g data-region="tongibari"><path id="tongibari" d="M 232.0,214.5 L 203.0,205.5 L 185.0,205.5 L 182.5,203.0 L 182.5,190.0 L 191.5,180.0 L 186.5,171.0 L 186.5,162.0 L 182.0,156.5 L 167.0,162.5 L 163.5,161.0 L 167.5,151.0 L 181.5,133.0 L 182.5,125.0 L 179.5,120.0 L 188.5,101.0 L 214.0,87.5 L 217.5,104.0 L 237.5,135.0 L 251.5,179.0 L 249.5,189.0 L 232.0,214.5 Z" fill="#5b2161" />
  <title>টংগিবাড়ী</title><text x="211.2" y="156.4" fill="#ffffff" font-family="Kalpurush, 'Noto Sans Bengali', 'Hind Siliguri', sans-serif" font-size="14" font-weight="400" text-anchor="middle">টংগিবাড়ী</text>
  </g></a><a class="region" id="link-munshiganj" data-area="munshiganj" href="#" target="_blank" rel="noopener noreferrer"><g data-region="munshiganj"><path id="munshiganj" d="M 267.0,231.5 L 254.0,231.5 L 234.5,213.0 L 251.5,188.0 L 251.5,170.0 L 236.5,129.0 L 219.5,105.0 L 216.5,86.0 L 235.0,75.5 L 260.0,74.5 L 266.0,78.5 L 284.0,100.5 L 294.5,107.0 L 288.5,114.0 L 291.0,116.5 L 295.0,114.5 L 297.5,119.0 L 297.5,135.0 L 303.5,150.0 L 300.5,174.0 L 267.0,231.5 Z" fill="#039cd4" />
  <title>সদর</title><text x="263.4" y="146.1" fill="#ffffff" font-family="Kalpurush, 'Noto Sans Bengali', 'Hind Siliguri', sans-serif" font-size="12" font-weight="400" text-anchor="middle">সদর</text>
  </g></a><a class="region" id="link-gazaria" data-area="gazaria" href="#" target="_blank" rel="noopener noreferrer"><g data-region="gazaria"><path id="gazaria" d="M 306.0,149.5 L 299.5,135.0 L 296.5,97.0 L 284.5,73.0 L 285.5,62.0 L 295.0,52.5 L 322.0,53.5 L 332.0,46.5 L 349.0,46.5 L 358.5,54.0 L 358.5,59.0 L 347.5,71.0 L 347.5,80.0 L 370.0,88.5 L 385.5,106.0 L 386.5,119.0 L 379.5,136.0 L 379.5,145.0 L 370.0,148.5 L 355.0,142.5 L 340.0,142.5 L 306.0,149.5 Z" fill="#b12068" />
  <title>গজারিয়া</title><text x="333.7" y="100.2" fill="#ffffff" font-family="Kalpurush, 'Noto Sans Bengali', 'Hind Siliguri', sans-serif" font-size="14" font-weight="400" text-anchor="middle">গজারিয়া</text>
  </g></a><a class="region" id="link-lauhajang" data-area="lauhajang" href="#" target="_blank" rel="noopener noreferrer"><g data-region="lauhajang"><path id="lauhajang" d="M 173.0,210.5 L 160.0,209.5 L 142.0,200.5 L 131.0,190.5 L 73.0,182.5 L 54.0,171.5 L 38.5,157.0 L 56.0,142.5 L 95.0,143.5 L 115.0,136.5 L 127.0,124.5 L 137.0,123.5 L 144.0,114.5 L 151.0,111.5 L 170.0,125.5 L 180.5,125.0 L 178.5,134.0 L 161.5,160.0 L 168.0,163.5 L 182.0,158.5 L 188.5,177.0 L 179.5,191.0 L 181.5,206.0 L 173.0,210.5 Z" fill="#018130" />
<title>লৌহজং</title><text x="126.7" y="162.6" fill="#ffffff" font-family="Kalpurush, 'Noto Sans Bengali', 'Hind Siliguri', sans-serif" font-size="14" font-weight="400" text-anchor="middle">লৌহজং</text>
</g></a></g><path id="district-outline" pointer-events="none" d="M 267.0,231.5 L 254.0,231.5 L 235.0,213.5 L 203.0,205.5 L 183.0,204.5 L 170.0,211.5 L 160.0,210.5 L 131.0,190.5 L 74.0,183.5 L 22.5,148.0 L 6.5,130.0 L 3.5,120.0 L 19.5,105.0 L 19.5,90.0 L 28.5,83.0 L 30.5,71.0 L 56.5,33.0 L 63.0,13.5 L 72.0,13.5 L 82.0,2.5 L 94.0,2.5 L 106.0,8.5 L 120.0,24.5 L 132.0,25.5 L 147.0,16.5 L 159.0,17.5 L 175.0,35.5 L 189.5,44.0 L 199.5,75.0 L 207.0,82.5 L 215.0,87.5 L 235.0,75.5 L 260.0,74.5 L 286.0,102.5 L 294.0,106.5 L 296.5,97.0 L 284.5,73.0 L 285.5,62.0 L 293.0,53.5 L 322.0,53.5 L 331.0,46.5 L 343.0,45.5 L 358.5,54.0 L 346.5,78.0 L 350.0,82.5 L 370.0,88.5 L 385.5,106.0 L 386.5,119.0 L 379.5,145.0 L 370.0,148.5 L 355.0,142.5 L 340.0,142.5 L 308.0,147.5 L 301.5,156.0 L 297.5,182.0 L 267.0,231.5 Z" fill="none" stroke="#111111" stroke-width="0" stroke-linejoin="round" />
<text id="title" pointer-events="none" x="250" y="28" font-family="Kalpurush, 'Noto Sans Bengali', 'Hind Siliguri', sans-serif" font-size="18" font-weight="400" fill="#111111" text-anchor="middle">মুন্সিগঞ্জ</text>
</svg>